<svg width="64" height="64" viewBox="0 0 64 64" fill="none" xmlns="http://www.w3.org/2000/svg">
<path d="M7.53366 43.5787L2.97116 51.4537L10.9562 58.11L21.5112 54.9925L16.7462 44.135L7.53366 43.5787Z" fill="#40C2D6"/>
<path d="M12.4274 54.2088C14.9514 54.2088 16.9974 52.7022 16.9974 50.8438C16.9974 48.9853 14.9514 47.4788 12.4274 47.4788C9.90348 47.4788 7.85742 48.9853 7.85742 50.8438C7.85742 52.7022 9.90348 54.2088 12.4274 54.2088Z" fill="#86EBF9"/>
<path d="M8.08865 44.2238L9.63615 46.9125H15.2862L16.2099 44.44L8.08865 44.2238Z" fill="#86EBF9"/>
<path d="M7.38242 44.6851L8.44117 47.5888L6.48617 51.2038L3.38867 51.4488L7.38242 44.6851Z" fill="#86EBF9"/>
<path d="M4.50241 52.1L10.8862 57.4238L11.2124 54.7625L8.84866 54.0838L6.89366 51.7225L4.50241 52.1Z" fill="#86EBF9"/>
<path d="M12.1487 55.115L11.7549 57.4237L20.2574 54.8712L17.5137 53.35L12.1487 55.115Z" fill="#86EBF9"/>
<path d="M16.5899 45.0649L15.7499 47.2712L17.7874 49.8187L17.5699 52.9149L20.6124 54.4149C18.2499 48.5287 19.1649 50.6762 16.5899 45.0649Z" fill="#86EBF9"/>
<path d="M8.08865 43.9862L15.4262 44.91V47.4787L16.1187 44.685L8.08865 43.9862Z" fill="#F4F4F4"/>
<path d="M8.44116 51.4487C8.44116 51.4487 9.20616 48.9025 10.2649 48.3325C11.3237 47.7625 14.6112 48.0662 14.6112 48.0662C14.6112 48.0662 11.2974 48.5487 10.7262 48.7387C10.1549 48.9287 8.44116 51.4487 8.44116 51.4487Z" fill="#F4F4F4"/>
<path d="M5.6199 48.0663L3.99115 50.8438L8.83865 55.3875L4.8874 50.8438L5.6199 48.0663Z" fill="#F4F4F4"/>
<path d="M33.5961 46.585C45.3902 46.585 54.9511 37.024 54.9511 25.23C54.9511 13.436 45.3902 3.875 33.5961 3.875C21.8021 3.875 12.2411 13.436 12.2411 25.23C12.2411 37.024 21.8021 46.585 33.5961 46.585Z" fill="#917EEC"/>
<path d="M46.9899 11.5238C47.4762 21.5163 44.4999 36.0376 25.1624 42.4476C27.7862 43.7385 30.672 44.4083 33.5962 44.4051C44.1687 44.4051 52.7712 35.8026 52.7712 25.2301C52.7723 22.675 52.2613 20.1457 51.2683 17.7916C50.2754 15.4374 48.8206 13.3062 46.9899 11.5238Z" fill="#6D5FDE"/>
<path d="M47.6399 47.9862H19.5511V41.2925C28.7577 43.7126 38.4334 43.7126 47.6399 41.2925V47.9862Z" fill="#EFBD42"/>
<path d="M50.1637 56.085H17.0287L19.6287 46.585H47.5624L50.1637 56.085Z" fill="#EFBD42"/>
<path d="M33.5962 58.8362C42.7461 58.8362 50.1637 57.6045 50.1637 56.085C50.1637 54.5655 42.7461 53.3337 33.5962 53.3337C24.4462 53.3337 17.0287 54.5655 17.0287 56.085C17.0287 57.6045 24.4462 58.8362 33.5962 58.8362Z" fill="#EFBD42"/>
<path d="M33.5961 48.2987C41.3523 48.2987 47.6399 47.5314 47.6399 46.585C47.6399 45.6385 41.3523 44.8712 33.5961 44.8712C25.84 44.8712 19.5524 45.6385 19.5524 46.585C19.5524 47.5314 25.84 48.2987 33.5961 48.2987Z" fill="#EFBD42"/>
<path d="M33.5962 56.0849C36.671 56.0849 39.1637 53.5923 39.1637 50.5175C39.1637 47.4426 36.671 44.95 33.5962 44.95C30.5213 44.95 28.0287 47.4426 28.0287 50.5175C28.0287 53.5923 30.5213 56.0849 33.5962 56.0849Z" fill="#D7981A"/>
<path d="M35.2062 46.2738C34.8874 46.1738 33.3887 45.7388 31.9362 46.5463C30.2649 47.4751 29.9662 49.3201 29.8724 49.8951C29.1512 54.3438 32.9099 56.2313 35.9074 54.8788C33.8162 53.9601 32.5687 51.8963 32.7924 49.8563C33.0399 47.6001 34.9712 46.4138 35.2062 46.2738Z" fill="#EFBD42"/>
<path d="M28.8168 49.0802L23.1421 48.3014C22.7501 48.2476 22.3887 48.5218 22.3349 48.9138L22.2871 49.2619C22.2333 49.6539 22.5075 50.0153 22.8995 50.0691L28.5742 50.8479C28.9663 50.9017 29.3277 50.6275 29.3815 50.2355L29.4292 49.8874C29.483 49.4954 29.2088 49.134 28.8168 49.0802Z" fill="#D7981A"/>
<path d="M38.5439 50.8256L44.2187 50.0469C44.6107 49.9931 44.8849 49.6317 44.8311 49.2397L44.7833 48.8916C44.7295 48.4996 44.3681 48.2254 43.9761 48.2792L38.3014 49.0579C37.9093 49.1117 37.6352 49.4731 37.689 49.8652L37.7367 50.2132C37.7905 50.6053 38.1519 50.8794 38.5439 50.8256Z" fill="#D7981A"/>
<path d="M25.8649 17.1999C27.1434 17.1999 28.1799 16.1635 28.1799 14.8849C28.1799 13.6064 27.1434 12.5699 25.8649 12.5699C24.5864 12.5699 23.5499 13.6064 23.5499 14.8849C23.5499 16.1635 24.5864 17.1999 25.8649 17.1999Z" fill="#F4F4F4"/>
<path d="M29.1824 24.07C30.1945 24.07 31.0149 23.2496 31.0149 22.2375C31.0149 21.2255 30.1945 20.405 29.1824 20.405C28.1704 20.405 27.3499 21.2255 27.3499 22.2375C27.3499 23.2496 28.1704 24.07 29.1824 24.07Z" fill="#EFBD42"/>
<path d="M19.5512 20.0375C21.1183 20.0375 22.3887 18.7672 22.3887 17.2C22.3887 15.6329 21.1183 14.3625 19.5512 14.3625C17.984 14.3625 16.7137 15.6329 16.7137 17.2C16.7137 18.7672 17.984 20.0375 19.5512 20.0375Z" fill="#EFBD42"/>
<path d="M41.6174 15.9737C43.1845 15.9737 44.4549 14.7033 44.4549 13.1362C44.4549 11.5691 43.1845 10.2987 41.6174 10.2987C40.0503 10.2987 38.7799 11.5691 38.7799 13.1362C38.7799 14.7033 40.0503 15.9737 41.6174 15.9737Z" fill="#EFBD42"/>
<path d="M23.5499 38.3538C25.6313 38.3538 27.3187 36.6665 27.3187 34.585C27.3187 32.5036 25.6313 30.8163 23.5499 30.8163C21.4685 30.8163 19.7812 32.5036 19.7812 34.585C19.7812 36.6665 21.4685 38.3538 23.5499 38.3538Z" fill="#EFBD42"/>
<path d="M20.6974 30.8162C22.2728 30.8162 23.5499 29.5391 23.5499 27.9637C23.5499 26.3883 22.2728 25.1112 20.6974 25.1112C19.122 25.1112 17.8449 26.3883 17.8449 27.9637C17.8449 29.5391 19.122 30.8162 20.6974 30.8162Z" fill="#F4F4F4"/>
<path d="M34.5711 33.8738C36.5932 33.8738 38.2324 32.2346 38.2324 30.2125C38.2324 28.1905 36.5932 26.5513 34.5711 26.5513C32.5491 26.5513 30.9099 28.1905 30.9099 30.2125C30.9099 32.2346 32.5491 33.8738 34.5711 33.8738Z" fill="#F4F4F4"/>
<path d="M38.0936 23.0199C40.0397 23.0199 41.6174 21.4423 41.6174 19.4962C41.6174 17.55 40.0397 15.9724 38.0936 15.9724C36.1475 15.9724 34.5699 17.55 34.5699 19.4962C34.5699 21.4423 36.1475 23.0199 38.0936 23.0199Z" fill="#F4F4F4"/>
<path d="M13.8311 22.2375C13.8311 22.2375 15.0486 5.70246 33.5961 5.07996C28.9557 5.61315 24.5849 7.53701 21.0576 10.599C17.5303 13.661 15.0112 17.718 13.8311 22.2375Z" fill="#F4F4F4"/>
<path d="M14.2986 24.0699C13.3174 30.7112 16.2849 36.7674 21.6186 40.6674C17.3237 36.1539 14.7354 30.2851 14.2986 24.0699Z" fill="#F4F4F4"/>
<path d="M20.2936 42.4187L20.6836 48.0262L18.2311 55.3074L21.6186 47.6749L20.2936 42.4187Z" fill="#F4F4F4"/>
<path d="M33.5849 46.5074C30.5986 47.0662 29.4161 50.1124 30.7286 52.7112C30.1586 50.2699 31.2199 47.7099 33.5849 46.5074Z" fill="#F4F4F4"/>
<path d="M46.2687 42.4188C46.2687 42.4188 42.7137 43.2513 42.4349 43.46C42.1562 43.6688 45.2187 46.2888 45.7287 48.0975C46.2387 49.9063 44.2899 54.5438 43.0387 55.7963C41.7874 57.0488 40.7199 57.7963 41.8324 57.8375C42.9449 57.8788 48.8612 56.445 49.1137 55.8375C49.3662 55.23 47.2012 48.3938 47.1662 47.42C47.1312 46.4463 47.0962 42.6425 46.9749 42.42C46.8537 42.1975 46.2687 42.4188 46.2687 42.4188Z" fill="#D7981A"/>
<path d="M45.2499 55.7325L52.8624 46.9038L61.0299 44.535L60.3262 52.4688L48.5262 60.125L45.4449 58.8925L45.2499 55.7325Z" fill="#40C2D6"/>
<path d="M45.5399 56.0863L45.7949 58.6201L47.0849 58.2463L45.5399 56.0863Z" fill="#86EBF9"/>
<path d="M46.4262 58.8537L48.3762 59.895L49.0962 59.4987L47.3212 58.3438L46.4262 58.8537Z" fill="#86EBF9"/>
<path d="M53.0149 47.4301L46.0099 55.7626L47.3299 57.6901L56.0599 50.8526L53.0149 47.4301Z" fill="#86EBF9"/>
<path d="M48.1424 57.9387L49.5149 58.6412L59.2637 52.5437L56.1912 51.3025L48.1424 57.9387Z" fill="#86EBF9"/>
<path d="M53.7537 47.215L56.5674 50.155L60.6687 44.8762L53.7537 47.215Z" fill="#86EBF9"/>
<path d="M60.5724 46.125L57.0612 50.5625L59.8574 51.9338L60.5724 46.125Z" fill="#86EBF9"/>
<path d="M48.0137 53.3787L52.7524 47.5062L59.1424 45.6525L53.1324 47.98L48.0137 53.3787Z" fill="#F4F4F4"/>
<path d="M54.3549 49.29L55.5362 51.8425L58.9924 52.185L55.6699 51.1588L54.3549 49.29Z" fill="#F4F4F4"/>
<path d="M46.0599 55.9351L47.0849 58.2463L49.3862 58.9763L47.3712 57.8288L46.0599 55.9351Z" fill="#F4F4F4"/>
</svg>
